<svg width="1109" height="897" viewBox="0 0 1109 897" fill="none" xmlns="http://www.w3.org/2000/svg">
<path d="M456.693 0.65332C484.577 0.653359 506.351 14.844 522.001 43.1338C538.222 70.7845 546.312 110.648 546.312 162.686C546.312 237.318 527.23 323.844 489.085 422.259C450.954 520.636 399.253 618.071 333.983 714.562C338.027 740.167 344.651 758.536 353.821 769.725C362.995 780.293 375.029 785.579 389.956 785.579C404.47 785.579 422.062 779.247 440.853 769.014C459.634 758.785 479.575 744.681 498.775 729.184C537.178 698.188 572.585 661.649 589.792 639.487L589.794 639.485C592.882 635.578 595.244 632.35 597.018 629.757C598.413 625.888 599.905 623.218 600.833 621.982C601.098 621.63 601.341 621.361 601.542 621.223C601.595 621.186 601.657 621.15 601.726 621.126C601.793 621.103 601.894 621.081 602.007 621.112C602.282 621.188 602.326 621.454 602.331 621.561C602.338 621.691 602.31 621.841 602.27 621.995C602.227 622.155 602.162 622.345 602.075 622.563C601.901 623 601.631 623.57 601.253 624.276C600.514 625.655 599.348 627.574 597.64 630.076C595.847 635.075 594.212 642.118 594.212 650.688C594.212 674.569 585.281 701.443 570.668 728.305C556.052 755.171 535.738 782.051 512.936 805.949C490.134 829.847 464.835 850.772 440.248 865.726C415.669 880.674 391.764 889.676 371.755 889.676C346.272 889.676 324.03 883.393 305.043 870.817C286.058 858.243 270.348 839.39 257.904 814.28L257.902 814.277C233.604 764.08 221.466 699.161 221.466 619.54C221.466 543.058 230.425 455.927 248.34 358.149V358.147C266.834 260.361 293.711 176.352 328.976 106.128L328.977 106.126C364.821 35.8967 407.382 0.65332 456.693 0.65332ZM437.625 94.4102C434.422 94.4103 431.071 95.9773 427.567 99.1953C424.065 102.413 420.438 107.256 416.691 113.742C409.198 126.714 401.262 146.193 392.886 172.192C376.136 224.186 361.405 288.716 348.695 365.788C336.067 442.365 322.005 547.374 320.689 618.153C361.459 544.916 401.03 440.415 425.162 367.503C449.422 293.58 461.547 226.249 461.547 165.506C461.547 141.702 459.524 123.887 455.498 112.035C451.47 100.177 445.488 94.4102 437.625 94.4102Z" fill="#1C1E1C" stroke="#1C1E1C" stroke-width="0.693563"/>
<path d="M99.7598 412.94C114.629 412.94 125.845 415.798 133.349 421.57C140.87 427.356 144.609 436.028 144.609 447.521C144.609 464.339 139.076 503.306 128.024 564.38L128.023 564.383C114.061 638.224 107.088 688.201 107.088 714.342C107.088 734.461 109.414 749.845 114.04 760.521C116.347 765.844 119.436 769.814 123.298 772.454C127.158 775.094 131.813 776.422 137.281 776.422C153.184 776.422 171.444 769.561 190.232 758.79C209.013 748.023 228.286 733.37 246.202 717.831C282.038 686.75 312.413 652.159 322.548 638.126L322.621 638.024L322.742 637.993C328.747 636.446 333.538 635.428 337.321 634.893C341.099 634.358 343.899 634.3 345.912 634.693C347.936 635.088 349.21 635.951 349.843 637.281C350.462 638.585 350.427 640.262 350.031 642.201C349.634 644.149 348.858 646.426 347.929 648.968C346.996 651.518 345.907 654.337 344.865 657.399C342.783 663.52 340.905 670.566 340.905 678.162C340.905 699.981 331.2 723.994 315.487 747.722C299.771 771.455 278.024 794.933 253.891 815.688C229.756 836.444 203.225 854.485 177.935 867.339C152.652 880.189 128.575 887.871 109.358 887.871C71.4311 887.871 43.6785 872.373 26.1602 841.379L26.1572 841.374C9.24947 810.428 0.80957 769.418 0.80957 718.369C0.809598 688.141 4.01103 649.527 10.4111 602.532L10.4121 602.529C17.3944 554.86 26.1221 510.545 36.5967 469.586C41.8363 448.091 48.8369 433.241 57.6396 425.115C66.4592 416.974 80.5264 412.94 99.7598 412.94Z" fill="#1C1E1C" stroke="#1C1E1C" stroke-width="0.693563"/>
<path d="M173.799 162.493C189.232 170.117 199.396 186.443 203.216 206.92C207.035 227.39 204.475 251.875 194.558 275.487C184.641 299.099 169.288 317.264 152.542 327.575C135.79 337.888 117.762 340.285 102.33 332.661C86.8975 325.037 76.7333 308.711 72.9133 288.234C69.0946 267.764 71.6557 243.278 81.5725 219.666C91.4893 196.055 106.841 177.89 123.588 167.579C140.34 157.266 158.367 154.869 173.799 162.493Z" fill="#1C1E1C" stroke="#1C1E1C" stroke-width="2.52449"/>
<path d="M631.682 413.728C646.551 413.728 657.766 416.585 665.271 422.357C672.792 428.143 676.531 436.815 676.531 448.308C676.531 465.127 670.997 504.093 659.946 565.167L659.945 565.17C645.983 639.011 639.01 688.988 639.01 715.129C639.01 735.248 641.336 750.632 645.962 761.308C648.269 766.631 651.358 770.601 655.22 773.241C659.08 775.881 663.735 777.208 669.203 777.208C679.04 777.208 691.734 771.434 705.603 762.256C719.455 753.089 734.42 740.568 748.784 727.16C777.515 700.344 803.806 670.017 813.943 655.98L813.946 655.977C824.056 642.367 832.089 635.355 838.083 633.091C841.092 631.954 843.626 632 845.645 633.058C847.657 634.112 849.091 636.135 849.982 638.808C851.763 644.144 851.44 652.225 849.104 661.062C846.769 669.899 842.409 679.54 836.057 688.038C818.298 732.866 782.169 782.995 744.229 821.918C725.251 841.388 705.81 858.064 687.978 869.876C670.159 881.678 653.894 888.658 641.28 888.658C603.353 888.658 575.6 873.161 558.082 842.166L558.079 842.161C541.171 811.215 532.731 770.205 532.731 719.156C532.731 688.928 535.933 650.314 542.333 603.319L542.334 603.316C549.316 555.647 558.044 511.332 568.519 470.373C573.758 448.878 580.759 434.028 589.562 425.902C598.381 417.761 612.448 413.728 631.682 413.728Z" fill="#1C1E1C" stroke="#1C1E1C" stroke-width="0.693563"/>
<path d="M697.831 162.493C713.263 170.117 723.427 186.443 727.247 206.92C731.066 227.39 728.506 251.875 718.589 275.487C708.672 299.099 693.319 317.264 676.573 327.575C659.821 337.888 641.793 340.285 626.361 332.661C610.929 325.037 600.765 308.711 596.945 288.234C593.126 267.764 595.687 243.278 605.604 219.666C615.521 196.055 630.873 177.89 647.619 167.579C664.371 157.266 682.398 154.869 697.831 162.493Z" fill="#1C1E1C" stroke="#1C1E1C" stroke-width="2.52449"/>
<path d="M875.304 892.679C844.583 884.875 820.346 868.664 802.593 844.046C785.503 818.903 774.898 789.166 770.776 754.836C766.655 720.506 768.498 685.264 776.305 649.11C787.093 599.152 803.964 556.632 826.918 521.552C850.535 485.947 877.443 460.539 907.641 445.327C937.981 429.458 969.032 425.558 1000.79 433.626C1031.52 441.429 1055.68 457.969 1073.29 483.244C1091.05 507.862 1101.98 537.337 1106.1 571.667C1110.22 605.997 1108.38 641.239 1100.57 677.393C1089.79 727.351 1072.58 770.133 1048.97 805.738C1025.49 840.686 998.325 866.028 967.464 881.765C937.265 896.977 906.546 900.615 875.304 892.679ZM900.043 819.831C957.082 834.32 985.156 734.718 994.18 692.928C1001.82 657.545 1024.49 516.612 978.302 504.88C919.058 489.831 892.114 587.339 882.603 631.386C873.794 672.179 842.167 805.13 900.043 819.831Z" fill="#BF5813"/>
</svg>
