<svg width="1108" height="896" viewBox="0 0 1108 896" fill="none" xmlns="http://www.w3.org/2000/svg">
<path d="M592.709 649.689C592.709 744.89 450.264 888.329 370.599 888.329C319.751 888.329 281.904 863.262 257.058 813.127C232.79 762.992 220.656 698.13 220.656 618.54C220.656 542.084 229.612 454.975 247.525 357.212C266.015 259.449 292.883 175.472 328.129 105.283C363.954 35.0945 406.423 0 455.537 0C483.272 0 504.94 14.1005 520.541 42.3014C536.72 69.8757 544.809 109.67 544.809 161.685C544.809 236.261 525.741 322.744 487.606 421.134C449.47 519.524 397.756 616.974 332.463 713.483C336.508 739.178 343.152 757.665 352.397 768.945C361.642 779.599 373.777 784.926 388.8 784.926C447.205 784.926 554.456 683.074 588.909 638.7C613.296 607.843 592.709 619.202 592.709 649.689ZM436.469 93.0631C423.18 93.0631 408.156 119.071 391.4 171.086C374.643 223.101 359.909 287.649 347.197 364.732C334.485 441.814 320.316 547.725 319.161 618.54C360.185 545.218 400.067 439.934 424.335 366.612C448.603 292.663 460.737 225.294 460.737 164.505C460.737 116.877 452.648 93.0631 436.469 93.0631Z" fill="#EFEBE9"/>
<path d="M108.202 886.522C70.3897 886.522 42.7574 871.084 25.3054 840.206C8.43512 809.329 0 768.382 0 717.368C0 687.161 3.19953 648.565 9.59859 601.577C16.5794 553.919 25.3054 509.616 35.7766 468.67C41.0122 447.19 47.9929 432.423 56.7189 424.368C65.4449 416.313 79.4065 412.285 98.6037 412.285C128.272 412.285 143.106 423.696 143.106 446.519C143.106 463.3 137.58 502.233 126.527 563.316C112.565 637.153 105.584 687.161 105.584 713.34C105.584 733.478 107.911 748.916 112.565 759.656C117.219 770.396 125.073 775.766 136.125 775.766C200.095 775.766 301.366 665.445 321.672 637.327C369.665 624.965 339.402 646.553 339.402 677.16C339.402 764.047 184.751 886.522 108.202 886.522Z" fill="#EFEBE9"/>
<path d="M194.541 275.044C174.535 322.678 132.518 348.546 100.693 332.823C68.8674 317.1 59.286 265.739 79.2919 218.106C99.2977 170.472 141.315 144.604 173.14 160.327C204.965 176.05 214.547 227.411 194.541 275.044Z" fill="#EFEBE9"/>
<path d="M640.124 887.311C602.312 887.311 574.679 871.873 557.227 840.995C540.357 810.118 531.922 769.171 531.922 718.157C531.922 687.95 535.121 649.354 541.52 602.366C548.501 554.708 557.227 510.405 567.698 469.459C572.934 447.979 579.915 433.212 588.641 425.157C597.367 417.102 611.328 413.074 630.526 413.074C660.194 413.074 675.028 424.485 675.028 447.308C675.028 464.089 669.502 503.022 658.449 564.105C644.487 637.943 637.506 687.95 637.506 714.129C637.506 734.267 639.833 749.705 644.487 760.445C649.141 771.185 656.994 776.555 668.047 776.555C707.837 776.555 792.762 683.301 813.069 655.184C853.488 600.772 859.95 652.992 834.598 686.864C799.138 776.432 690.153 887.311 640.124 887.311Z" fill="#EFEBE9"/>
<path d="M718.572 275.044C698.566 322.678 656.549 348.546 624.724 332.823C592.899 317.1 583.317 265.739 603.323 218.106C623.329 170.472 665.346 144.604 697.171 160.327C728.996 176.05 738.578 227.411 718.572 275.044Z" fill="#EFEBE9"/>
<path d="M874.148 891.677C843.427 883.873 819.19 867.663 801.437 843.044C784.347 817.901 773.741 788.165 769.62 753.834C765.499 719.504 767.342 684.262 775.149 648.108C785.937 598.15 802.808 555.63 825.762 520.55C849.379 484.945 876.287 459.537 906.485 444.325C936.825 428.456 967.876 424.556 999.639 432.624C1030.36 440.427 1054.53 456.967 1072.14 482.242C1089.89 506.861 1100.83 536.335 1104.95 570.665C1109.07 604.995 1107.23 640.237 1099.42 676.391C1088.63 726.35 1071.43 769.131 1047.81 804.736C1024.34 839.684 997.168 865.027 966.307 880.763C936.109 895.975 905.389 899.613 874.148 891.677ZM898.887 818.829C955.926 833.318 984 733.716 993.024 691.926C1000.66 656.543 1023.33 515.61 977.146 503.878C917.902 488.83 890.958 586.337 881.447 630.385C872.638 671.177 841.011 804.128 898.887 818.829Z" fill="#BF5813"/>
</svg>
